# xmcd
#
# Track frame offsets: 
#        150
#        14092
#        29700
#        54572
#        72062
#        91057
#        112310
#        124027
#        143162
#        160630
#        181525
#        200240
#
# Disc length: 2870 seconds
#
# Revision: 0
# Processed by: cddbd v1.5.2PL0 Copyright (c) Steve Scherf et al.
# Submitted via: ExactAudioCopy v1.0b1
#
DISCID=a80b340c
DTITLE=Tommy Ray O'Dell - Lightnin' From Heaven
DYEAR=1999
DGENRE=Christian Rock
TTITLE0=Our LIght
TTITLE1=Didn't it Rain
TTITLE2=Old School
TTITLE3=King of Sorrow
TTITLE4=God Never Gave Up
TTITLE5=What You Can't Buy
TTITLE6=Jesus Loves Us
TTITLE7=Gypsy
TTITLE8=Daddy Don't Need No Shot
TTITLE9=Cornbread and Beans
TTITLE10=Shake This World
TTITLE11=Still Standing
EXTD=
EXTT0=
EXTT1=
EXTT2=
EXTT3=
EXTT4=
EXTT5=
EXTT6=
EXTT7=
EXTT8=
EXTT9=
EXTT10=
EXTT11=
PLAYORDER=
